/* XPM */
static char *a928d999e79f4fe6dfca66fcdeb81c9eOJlvNXRwIesTcha6[] = {
/* columns rows colors chars-per-pixel */
"32 32 81 1 ",
"  c None",
". c #090000",
"X c #0B0000",
"o c #0D0000",
"O c #0F0000",
"+ c #110000",
"@ c #120000",
"# c #170000",
"$ c #190500",
"% c #1B0500",
"& c #1F0700",
"* c #130800",
"= c #180D00",
"- c #230200",
"; c #240200",
": c #270200",
"> c #2B0400",
", c #240800",
"< c #2A0A00",
"1 c #310300",
"2 c #350700",
"3 c #380400",
"4 c #3F0600",
"5 c #3A0800",
"6 c #3D0800",
"7 c #351000",
"8 c #311700",
"9 c #3E1500",
"0 c #352000",
"q c #3E2400",
"w c #430A00",
"e c #440A00",
"r c #4C0800",
"t c #4F0C00",
"y c #4E0E01",
"u c #411700",
"i c #471A00",
"p c #4A1E00",
"a c #521000",
"s c #571300",
"d c #5B1101",
"f c #5F1300",
"g c #591400",
"h c #5F1500",
"j c #6A1800",
"k c #691B00",
"l c #6A1E00",
"z c #6C1E00",
"x c #6F1F00",
"c c #7A1D00",
"v c #5B2200",
"b c #592A00",
"n c #4E3A00",
"m c #782400",
"M c #7A2304",
"N c #735200",
"B c #802A00",
"V c #892F00",
"C c #8C2A04",
"Z c #844704",
"A c #894600",
"S c #8F5005",
"D c #A54100",
"F c #A05D00",
"G c #BE5D0E",
"H c #8D6E0D",
"J c #A16100",
"K c #A06308",
"L c #AD7009",
"P c #D77B1C",
"I c #BD8100",
"U c #B5821D",
"Y c #FBB700",
"T c #CE9832",
"R c #D0A72B",
"E c #DBB435",
"W c #F9D45B",
"Q c #FFD76A",
"! c #FCE27C",
"~ c #FCEAB1",
"^ c #FFF4C8",
/* pixels */
"                                ",
"                                ",
"                                ",
"                                ",
"                                ",
"                                ",
"                                ",
"                                ",
"    ==################==        ",
"   =!UqqBDDGPPGGDDDBBnTS=@#o    ",
"  =~UqBBBBBBBDDDmkhhn!S8kCrw@   ",
"  =WqrrrrrrrrBBBBBkn!S8jcjdf-o  ",
" =!UqBDDGGPPPrrrrrn~TS8af333te@ ",
" =WKqhhkmDDnDGGGDDn!S8r33CCc65# ",
" &bbbbbBBDn~nDDmkhnWS8kCcfg99<$ ",
" &^QYIIbbbnWnbbBBxnWZ8a9999FAv& ",
"  &ppppYIJnEnJIbbbbbbi9FFAA77,& ",
"  =LZqkpp0RnH0pIYQYIJiA7777-2o  ",
"   =EqDBr0HHN0rppppppi7d1kw:w@  ",
"   =WqGBrk0N0s4llsqLZ8jx3cf:to  ",
"   =!qGBrDl0lVBrDBn!L8MB3C:d6o  ",
"   =~EqPrGB4PDBrDBn~L8MB3C:dX   ",
"    =!qGBrPrGDBrGDBnW8krCf:a@   ",
"    =WqGBrGBrGBrPDBn!8arC4:2o   ",
"    =EqDBrGBrGDBwPmn~8a:r6-wo   ",
"    ==##krDkrDDBrPBnW82-w>X#    ",
"        #######krDlnE85XX@      ",
"               ##@##=*o         ",
"                                ",
"                                ",
"                                ",
"                                "
};
