/* XPM */
static char *_b76a089ab0f413498ecfbf487ec0ea2G1rC5ISGEHuvcDL6[] = {
/* columns rows colors chars-per-pixel */
"32 32 6 1 ",
"  c None",
". c #04193F",
"X c #780BF7",
"o c #D840FB",
"O c #F489F6",
"+ c #FCFEFE",
/* pixels */
"                                ",
"                                ",
"                                ",
"                                ",
"          ..     ..             ",
"         .OO.   .XX.            ",
"        .OOOO. .XXX.            ",
"        .OOOOO..XXXX.           ",
"         .OOOooooXXX.           ",
"         .oOOOOOoooXX.          ",
"        .oOOOOOOOoooX.          ",
"        .OOOOO++++++XX.         ",
"       .oOOOO++++++++X.         ",
"       .OOOO++...+++..X.        ",
"       .OOOO+..++.+..+..        ",
"       .OOOO+..++.+..+..        ",
"       .OOOO+.....+.....        ",
"       .oOOOO+...+++..X.        ",
"        .OOOO+++++++++.         ",
"        .oOOOOo++++++X.         ",
"         .OOOOOoooXXX.          ",
"         .OOOOOO+++X.           ",
"        .OOOOXO++++XX.          ",
"        .OOOOXO+++++X.          ",
"       .OOOOXo++++++XX.         ",
"       .OOOOXo++++++XX.         ",
"       .OOOXoO++++++XX.         ",
"        .XXooOO++++X..          ",
"         .ooOOOoooXX.           ",
"         .OOOO..XXXX.           ",
"         .OOOO..XXX.            ",
"         .OOO. .XXX.            "
};
