/* XPM */
static char *_b533a30f54f41dae815ed0eaf481f8e1Kd9gpmMpGUz9YkN[] = {
/* columns rows colors chars-per-pixel */
"32 32 11 1 ",
"  c None",
". c #122020",
"X c #24523B",
"o c #1A7A3E",
"O c #14A02E",
"+ c #59C135",
"@ c #72C135",
"# c #91E550",
"$ c #F5A097",
"% c #FAD6B8",
"& c #FEF3C0",
/* pixels */
"           .++...   ..O+        ",
"      .. ...&O&O## .++++.       ",
"     .+#..O.X&XO+..O+##.  ...   ",
"      .O#OO+OX+OO+OOO++..+++.   ",
"     .O+OO+++O+++O+++++O+OO++.  ",
"    .+O+++++O++OOO++%+%+++O#.   ",
"   &#@+O+++++#+#+O++o&o+O+#.X.  ",
"  ..&++OO#%O%O#+O++OOo+##++&X&. ",
" .OO.+++++o&oO++O+++OO+#++oX&.+.",
"  .oO++++#%X%+oo++++OOO+oOoO.O. ",
"   .OOO++oXOX+oOO+O+++++OOX#+.  ",
" ..+++++Oo+OOO++++OOO++#&XXOo.  ",
" #+OOo+Oo++OOO#OOOOoo+O&.XXX... ",
" OOOOooO++++O#+#OOOo+Oo.&XOOOX. ",
" .oXoooOooO+O+O+OOO+OOoo.O+oo.. ",
" .oX&ooOooO+O%O%OOO+OOooXO+oo.. ",
" ..o.&oOooOOo.%.OO++OOooXOoooX..",
" .ooX.oo..oOXX.oOOOoo..XXooooXo.",
"  .X.ooXo..oXXooOXX..XOOo%X.X.X.",
" .XoXooOOOXXoOXXOXXXXXoO$.$XX...",
" .X.XXX..OOOOOoXooOOXXXO...X... ",
"  ..XXXX..XO.%OoXoXXOXoOO..X..  ",
"   ..o..X...$.$XXX.OOXoX..XX.   ",
"    .XXoX.oXXX.oo....oXXXXX..   ",
"    .XoXXXXXoXo.oXXX...XX...    ",
"     .X..XX.Xo..XX..XXXX...     ",
"      ......XoXXXXXXXX...       ",
"         ......X.........       ",
"           .............        ",
"                                ",
"                                ",
"                                "
};
