/* XPM */
static char *f1bc900fa7394b25ab006ffe19a0b38dt8qo0qfnnpHRxmcq[] = {
/* columns rows colors chars-per-pixel */
"32 32 86 1 ",
"  c None",
". c black",
"X c gray4",
"o c #151616",
"O c #343434",
"+ c #434343",
"@ c gray27",
"# c #464646",
"$ c #656565",
"% c #717171",
"& c #7D7E7E",
"* c #FF3C00",
"= c #FA3B05",
"- c #F3370A",
"; c #F63A09",
": c #D42F2E",
"> c #D82F29",
", c #DD3124",
"< c #DD3224",
"1 c #DC3226",
"2 c #DD3C24",
"3 c #D4302E",
"4 c #D93128",
"5 c #D93129",
"6 c #D83A29",
"7 c #CA3938",
"8 c #FC4E09",
"9 c #FC5307",
"0 c #F74B16",
"q c #FB5D17",
"w c #F16E0F",
"e c #DC4725",
"r c #DD452E",
"t c #CE4734",
"y c #D5413B",
"u c #DB463E",
"i c #DB463F",
"p c #D54F3F",
"a c #EE4920",
"s c #8D7879",
"d c #CF4444",
"f c #DB564F",
"g c #D86646",
"h c #DD6762",
"j c #F49319",
"k c #F7B11F",
"l c #F4A335",
"z c #FBB038",
"x c #E8C23D",
"c c #ED8458",
"v c #F3B44F",
"b c #EEBF5B",
"n c #AAC66F",
"m c #F7D150",
"M c #868686",
"N c #989898",
"B c #BCAAA9",
"V c #AFB0B0",
"C c #B4B4B4",
"Z c gray74",
"A c #BDBEBE",
"S c #C1AFAD",
"D c #CAB2AB",
"F c #CAB6AE",
"G c #C4B1B1",
"H c #C1BFBF",
"J c #CBBCB8",
"K c #E1BEBB",
"L c #BDC2B3",
"P c #C9C0AB",
"I c #C9C7B5",
"U c #D6C7B9",
"Y c #E2C4B0",
"T c #C1C1C1",
"R c #C3C3C3",
"E c #C4C4C3",
"W c #C8C7C7",
"Q c #DAC5C6",
"! c #DBC9C9",
"~ c #DECACB",
"^ c #CFCFD0",
"/ c #D3D4D4",
"( c #D8D9DA",
") c #DBDCDC",
"_ c gray87",
"` c #E1E1E1",
/* pixels */
"               :                ",
"              :>:               ",
"              <-<               ",
"             5;*;5              ",
"             <=*=<              ",
"            5;***;5             ",
"            5=***=5             ",
"            4=***=4             ",
"           :>=***=>:            ",
"           3288998r3            ",
"           pjkkmmmbp            ",
"           SPPPIIIIS            ",
"          ZR()^^^)(EZ           ",
"          R(_Z%$%W`(R           ",
"          R(COXXo$W)R           ",
"          REOX...o%^R           ",
"          RRO@o..o%^R           ",
"         HE(C+#XX$W)EZ          ",
"         H(`_COoOZ``(H          ",
"        dG)``_WGW_``)Gd         ",
"       :yG__)_KhK___)Gy:        ",
"      5<aD(RR~f-f!EZ(Da<:       ",
"     5==0D(LnUu-uQVN/D0;<:      ",
"     >=80D(FxYu;u~//(D0*;5      ",
"     4=*0D(PlYu;uQEZ(D0*=5      ",
"     5=*qF(FcKd-dQVN/Fq*=5      ",
"     4=qvI(EJQu-u~(/(Ivq=4      ",
"     58zgB((_~u-u~`_(Bgz85      ",
"     59jtsVZ(~u-u!(HVstj95      ",
"     6we: &MCBy-uBCM& :ew6      ",
"     36:    &s7>7s&    :63      ",
"     :         :         :      "
};
