/* XPM */
static char *_e03723b2b3e4f8ace0279f1ba170307FOyRG8SI3bJRczIK[] = {
/* columns rows colors chars-per-pixel */
"32 32 11 1 ",
"  c #D6F264",
". c #423934",
"X c #9CDB43",
"o c #5A4E44",
"O c #A08662",
"+ c #796755",
"@ c #A6FCDB",
"# c #249FDE",
"$ c #40AE9E",
"% c #20D6C7",
"& c white",
/* pixels */
" ....X XXX..XXo...XXXoXXX X.... ",
"..O+..XX.+...X.+++.X+.++XX.++O..",
" X+oo......+..oooo.X+..o...oo.X ",
"X  o....++.o+..oo..+o.++....o  X",
"XXXX.oo.++o..........o++.oo.XXXX",
"XX..+.o.++.o+.oooo.+o.++.o.+..XX",
"...+o.....ooo.oooo.ooo.....o+...",
"X....ooo@@.o.@.oo.@.o.@@ooo....X",
" X...@@@##@@@#@@@@#@@@##@@@...X ",
"X ..@###$$###$####$###$$###@.. X",
"...@#$$$%%$$$%$$$$%$$$%%$$$#@...",
" ..@#$%%%%%%%%%%%%%%%%%%%%$#@.. ",
" o.@#$%%%%%%%%%%%%%%%%%%%%$#@.o ",
"XXX@#$%%%%%%%%%%%%%%%%%%%%$#@XXX",
"XX.@#$%%%%%%%%%%%%%%%%%%%%$#@.XX",
"..@#$%%%%%@@%%@%%%%%%%%%%%%$#@..",
"..@#$%%%%%%%%%%%%%%%%%%%%%%$#@..",
"X..@#$%%%%%%%%%%%%%%%%%%%%$#@.+X",
" ..@#$%%%%%%%%%%%%%%%%%%%%$#@.+ ",
"XX.@#$%%%%%%%%%%%%%%%%%%%%$#@.XX",
" X.@#$%%%%%%%%%%%%%%%%%%%%$#@.X ",
"X..@#$%%%%%%%%%%%%%%%%%%%%$#@..X",
"..@#$%%%###%%#%%%%%%%%%%%%%$#@..",
"...@#$%%%%%%%%%%%%%%%%%%%%$#@..+",
" X.@#$%%%%%%%%%%%%%%%%%%%%$#@.X ",
" X.@#$%%%%%%%%%%%%@%%@@%%%$#@.X ",
"Xo.@#$%%%%%%%%%%%%%%%%%%%%$#@.oX",
"o.@@#$$$$$%$$$$$$$$$%%$$$$$#@@.o",
"....@#####$##########$#####@....",
" +o. @@@@@#@@@@@@@@  #@@@X@..o+ ",
" X+X ...  @.. ...    X...X .X+X ",
"X  X o.X   o  ..X  X XXXXX XXo X"
};
