/* XPM */
static char *d34887f55a634fca8a79bd976253c672FsPTkt17PCNwVnf8[] = {
/* columns rows colors chars-per-pixel */
"32 32 9 1 ",
"  c None",
". c #141013",
"X c #423934",
"o c #5A4E44",
"O c #796655",
"+ c #A08662",
"@ c #C7B08B",
"# c #E4D2AA",
"$ c white",
/* pixels */
"                                ",
"                                ",
"           ..........           ",
"          .O#$##$$+++..         ",
"         .+###$$#######.        ",
"        .#@#@@@@@###@@##.       ",
"       .@@@@########@@@@.       ",
"      .O++@@@@@@@@@@@@XO.       ",
"     .+++++O@@@@oooO#OX#.       ",
"     .OOOOoooXooo####OooX.      ",
"    .+OOOOOO+oXXXo##++OXX.      ",
"    .#oooo###OoXo+++++OXXo.     ",
"   .#+++####+#+XoO@@@@X+Xo.     ",
"   .##$$##$$##@+o+@@@@##+++.    ",
"   .####$$##@@@O++########+.    ",
"   .+@@@@@@@@@@O+#$$$#@$@#+.    ",
"  ..#@@@@@@@@+O#####$$##@@+.    ",
"  .++@++++@++oX#@@@@@@@@@@++.   ",
"  .+OO@@@@+#+oX+@@@++oooXOOo.   ",
" ..O++++ooXXXXOOOo####ooOOOo.   ",
" .XOOO+OoXooooO++ooooOOOOOOoo.  ",
" .XX++OOO++oo+O+OOXXooXXXoooo.  ",
" .XXoOOOOOO++OoXOOOOOXXooooo..  ",
" .XXooXXOOXXooXXOOOXXooooXXX..  ",
"  ..XooooooooX..XXOOooooXXXX.   ",
"   ...XXXXXX.....X..XXXXX....   ",
"    ......................      ",
"                                ",
"                                ",
"                                ",
"                                ",
"                                "
};
